<?xml version="1.0" encoding="UTF-8"?>
<!DOCTYPE svg PUBLIC "-//W3C//DTD SVG 1.1//EN" "http://www.w3.org/Graphics/SVG/1.1/DTD/svg11.dtd">
<!-- Creator: CorelDRAW X7 -->
<svg xmlns="http://www.w3.org/2000/svg" xml:space="preserve" width="7.16738in" height="2.17009in" version="1.1" style="shape-rendering:geometricPrecision; text-rendering:geometricPrecision; image-rendering:optimizeQuality; fill-rule:evenodd; clip-rule:evenodd"
viewBox="0 0 617 187"
 xmlns:xlink="http://www.w3.org/1999/xlink">
 <defs>
  <style type="text/css">
   <![CDATA[
    .fil0 {fill:none}
    .fil1 {fill:#5BD0AD}
    .fil2 {fill:#F2635E}
    .fil3 {fill:#4B4B4D;fill-rule:nonzero}
   ]]>
  </style>
 </defs>
 <g id="Layer_x0020_1">
  <metadata id="CorelCorpID_0Corel-Layer"/>
  <rect class="fil0" width="617" height="187"/>
  <polygon class="fil1" points="103,115 47,115 47,136 93,136 "/>
  <polygon class="fil2" points="47,72 123,72 134,50 47,50 "/>
  <polygon class="fil2" points="47,104 123,104 134,83 47,83 "/>
  <path class="fil3" d="M185 70l0 21 28 0 0 14 -28 0 0 32 -19 0 0 -82 53 0 0 15 -34 0zm49 18c2,-3 4,-6 6,-8 3,-2 5,-2 8,-2 3,0 5,0 7,1l-1 13c0,1 -1,2 -1,2 -1,0 -1,1 -2,1 0,0 -1,-1 -1,-1 -1,0 -1,0 -2,0 0,0 -1,0 -1,0 -1,0 -1,0 -2,0 -2,0 -4,1 -6,2 -1,1 -3,3 -4,6l0 35 -17 0 0 -58 10 0c1,0 2,0 2,0 1,0 1,0 2,1 0,0 0,0 1,1 0,0 0,1 0,2l1 5zm51 26c-4,0 -7,0 -9,0 -2,1 -4,1 -5,2 -2,1 -3,2 -3,2 -1,1 -1,2 -1,3 0,2 1,4 2,5 1,0 2,1 4,1 3,0 5,-1 6,-1 2,-1 4,-3 6,-4l0 -8zm-32 -27c4,-3 7,-6 12,-7 4,-2 9,-2 14,-2 3,0 6,0 9,1 3,1 6,3 8,5 2,2 3,5 4,7 1,3 2,6 2,10l0 36 -8 0c-2,0 -3,0 -4,0 -1,-1 -2,-2 -2,-3l-2 -3c-1,1 -2,2 -4,3 -1,1 -3,2 -4,2 -1,1 -3,2 -5,2 -1,0 -3,0 -5,0 -3,0 -5,0 -7,-1 -3,0 -4,-1 -6,-3 -1,-1 -3,-3 -4,-5 0,-2 -1,-4 -1,-7 0,-2 1,-4 2,-6 1,-2 3,-4 5,-6 3,-2 6,-4 11,-5 4,-1 10,-2 17,-2l0 -2c0,-4 -1,-6 -3,-8 -1,-1 -3,-2 -6,-2 -2,0 -3,0 -5,1 -1,0 -2,1 -3,1 -1,1 -2,1 -3,2 -1,0 -2,0 -4,0 -1,0 -2,0 -3,0 -1,-1 -1,-2 -2,-3l-3 -5zm54 50l0 -58 11 0c2,0 3,1 4,3l1 3c1,-1 2,-2 3,-3 1,-1 2,-2 4,-2 1,-1 2,-1 4,-2 1,0 2,0 4,0 4,0 7,1 9,3 2,1 4,4 5,7 1,-2 2,-3 4,-5 1,-1 3,-2 4,-3 2,-1 4,-1 6,-2 2,0 3,0 5,0 4,0 6,0 9,1 3,1 5,3 7,5 1,2 3,4 4,7 1,2 1,6 1,9l0 37 -18 0 0 -37c0,-6 -2,-9 -7,-9 -3,0 -5,1 -6,2 -2,2 -3,4 -3,7l0 37 -17 0 0 -37c0,-3 -1,-6 -2,-7 -2,-1 -3,-2 -6,-2 -2,0 -3,0 -5,1 -1,1 -2,2 -4,3l0 42 -17 0zm127 -36c0,-1 0,-3 -1,-4 0,-1 -1,-3 -1,-4 -1,-1 -2,-1 -4,-2 -1,-1 -3,-1 -4,-1 -4,0 -6,1 -8,3 -2,2 -3,4 -4,8l22 0zm-22 10c0,5 2,9 4,11 3,2 6,3 10,3 2,0 3,0 5,-1 1,0 3,-1 4,-1 1,-1 2,-1 3,-2 1,0 2,-1 3,-1 1,0 2,1 3,2l5 6c-2,2 -3,4 -6,5 -2,2 -4,3 -6,3 -2,1 -4,2 -7,2 -2,0 -4,0 -6,0 -4,0 -8,0 -12,-2 -3,-1 -6,-3 -9,-6 -3,-2 -5,-6 -6,-9 -2,-4 -3,-9 -3,-14 0,-4 1,-8 2,-11 2,-4 4,-7 6,-10 3,-2 6,-4 9,-6 4,-1 8,-2 12,-2 4,0 8,0 11,2 3,1 6,3 8,5 3,2 4,5 6,8 1,4 2,7 2,12 0,1 0,2 -1,3 0,1 0,1 0,2 0,0 -1,1 -1,1 -1,0 -2,0 -2,0l-34 0zm78 -19c-1,0 -1,1 -2,1 0,0 -1,1 -2,1 0,0 -1,-1 -2,-1 -1,0 -2,-1 -3,-1 -1,-1 -2,-1 -3,-1 -1,-1 -3,-1 -4,-1 -2,0 -4,1 -5,1 -2,1 -2,2 -2,4 0,1 0,2 1,3 1,0 2,1 3,2 1,0 3,1 4,1 2,1 4,1 5,2 2,0 4,1 5,2 2,1 4,2 5,3 1,1 2,3 3,4 1,2 1,4 1,6 0,3 0,6 -2,8 -1,3 -2,5 -4,7 -2,2 -5,3 -8,4 -3,1 -7,1 -11,1 -2,0 -4,0 -6,0 -2,-1 -4,-1 -5,-2 -2,0 -4,-1 -6,-2 -1,-1 -3,-2 -4,-3l4 -6c1,-1 1,-2 2,-2 1,-1 2,-1 3,-1 1,0 2,0 3,1 0,0 1,1 2,1 1,1 2,1 3,2 2,0 3,1 5,1 2,0 3,-1 4,-1 1,0 1,-1 2,-1 1,-1 1,-1 1,-2 0,0 1,-1 1,-2 0,-1 -1,-2 -2,-2 0,-1 -1,-2 -3,-2 -1,-1 -2,-1 -4,-2 -2,0 -3,-1 -5,-2 -2,0 -3,-1 -5,-2 -2,-1 -3,-2 -4,-3 -2,-1 -3,-3 -4,-5 0,-2 -1,-4 -1,-7 0,-2 1,-4 2,-7 1,-2 2,-4 4,-6 2,-1 4,-3 7,-4 3,-1 7,-1 10,-1 3,0 5,0 7,0 2,1 3,1 5,2 2,1 3,1 5,2 1,1 3,2 4,3l-4 7zm25 -13l0 58 -18 0 0 -58 18 0zm2 -16c0,1 -1,2 -1,4 -1,1 -2,2 -3,3 0,1 -2,1 -3,2 -1,1 -3,1 -4,1 -2,0 -3,0 -4,-1 -1,-1 -2,-1 -3,-2 -1,-1 -2,-2 -3,-3 0,-2 -1,-3 -1,-4 0,-2 1,-3 1,-4 1,-2 2,-3 3,-4 1,-1 2,-1 3,-2 1,0 2,-1 4,-1 1,0 3,1 4,1 1,1 3,1 3,2 1,1 2,2 3,4 0,1 1,2 1,4zm34 51c-3,0 -6,0 -8,0 -2,1 -4,1 -6,2 -1,1 -2,2 -2,2 -1,1 -1,2 -1,3 0,2 0,4 2,5 1,0 2,1 4,1 3,0 5,-1 6,-1 2,-1 4,-3 5,-4l0 -8zm-31 -27c3,-3 7,-6 12,-7 4,-2 9,-2 14,-2 3,0 6,0 9,1 3,1 5,3 7,5 2,2 4,5 5,7 1,3 2,6 2,10l0 36 -8 0c-2,0 -3,0 -4,0 -1,-1 -2,-2 -2,-3l-2 -3c-1,1 -3,2 -4,3 -1,1 -3,2 -4,2 -2,1 -3,2 -5,2 -1,0 -3,0 -5,0 -3,0 -5,0 -8,-1 -2,0 -4,-1 -5,-3 -2,-1 -3,-3 -4,-5 0,-2 -1,-4 -1,-7 0,-2 1,-4 2,-6 1,-2 3,-4 5,-6 3,-2 6,-4 11,-5 4,-1 10,-2 16,-2l0 -2c0,-4 0,-6 -2,-8 -1,-1 -3,-2 -6,-2 -2,0 -3,0 -5,1 -1,0 -2,1 -3,1 -1,1 -2,1 -3,2 -1,0 -3,0 -4,0 -1,0 -2,0 -3,0 -1,-1 -1,-2 -2,-3l-3 -5z"/>
 </g>
</svg>
